<mxfile host="app.diagrams.net" modified="2022-12-19T11:09:47.185Z" agent="5.0 (Macintosh; Intel Mac OS X 10_15_7) AppleWebKit/537.36 (KHTML, like Gecko) Chrome/108.0.0.0 Safari/537.36" etag="TZ1I-9azqHdC5yeAAYZv" version="20.6.0" type="github" pages="2">
  <diagram id="r1NtmoYh26IdcGPkt7IQ" name="Page-1">
    <mxGraphModel dx="946" dy="646" grid="1" gridSize="10" guides="1" tooltips="1" connect="1" arrows="1" fold="1" page="1" pageScale="1" pageWidth="827" pageHeight="1169" math="0" shadow="0">
      <root>
        <mxCell id="0" />
        <mxCell id="1" parent="0" />
        <mxCell id="aUGEdeCKB7R9TSqS2uOZ-3" style="edgeStyle=orthogonalEdgeStyle;rounded=0;orthogonalLoop=1;jettySize=auto;html=1;exitX=1;exitY=0.5;exitDx=0;exitDy=0;entryX=0;entryY=0.5;entryDx=0;entryDy=0;strokeColor=default;fontFamily=Arial;fontSource=https%3A%2F%2Ffonts.googleapis.com%2Fcss%3Ffamily%3DArial;" parent="1" source="aUGEdeCKB7R9TSqS2uOZ-1" target="aUGEdeCKB7R9TSqS2uOZ-2" edge="1">
          <mxGeometry relative="1" as="geometry" />
        </mxCell>
        <mxCell id="aUGEdeCKB7R9TSqS2uOZ-1" value="Algorand Full Node" style="rounded=0;whiteSpace=wrap;html=1;fillColor=#f8cecc;strokeColor=#b85450;fontFamily=Arial;fontSource=https%3A%2F%2Ffonts.googleapis.com%2Fcss%3Ffamily%3DArial;" parent="1" vertex="1">
          <mxGeometry x="120" y="100" width="120" height="60" as="geometry" />
        </mxCell>
        <mxCell id="aUGEdeCKB7R9TSqS2uOZ-2" value="Algorand Indexer V2" style="rounded=0;whiteSpace=wrap;html=1;fillColor=#f8cecc;strokeColor=#b85450;fontFamily=Arial;fontSource=https%3A%2F%2Ffonts.googleapis.com%2Fcss%3Ffamily%3DArial;" parent="1" vertex="1">
          <mxGeometry x="320" y="100" width="120" height="60" as="geometry" />
        </mxCell>
        <mxCell id="aUGEdeCKB7R9TSqS2uOZ-5" style="edgeStyle=orthogonalEdgeStyle;rounded=0;orthogonalLoop=1;jettySize=auto;html=1;exitX=0.5;exitY=0;exitDx=0;exitDy=0;entryX=0.5;entryY=1;entryDx=0;entryDy=0;fontFamily=Arial;fontSource=https%3A%2F%2Ffonts.googleapis.com%2Fcss%3Ffamily%3DArial;" parent="1" source="aUGEdeCKB7R9TSqS2uOZ-4" target="aUGEdeCKB7R9TSqS2uOZ-2" edge="1">
          <mxGeometry relative="1" as="geometry" />
        </mxCell>
        <mxCell id="aUGEdeCKB7R9TSqS2uOZ-8" style="edgeStyle=orthogonalEdgeStyle;rounded=0;orthogonalLoop=1;jettySize=auto;html=1;exitX=0;exitY=0.5;exitDx=0;exitDy=0;entryX=1;entryY=0.5;entryDx=0;entryDy=0;entryPerimeter=0;strokeColor=default;fontFamily=Arial;fontSource=https%3A%2F%2Ffonts.googleapis.com%2Fcss%3Ffamily%3DArial;" parent="1" source="aUGEdeCKB7R9TSqS2uOZ-4" target="aUGEdeCKB7R9TSqS2uOZ-7" edge="1">
          <mxGeometry relative="1" as="geometry" />
        </mxCell>
        <mxCell id="aUGEdeCKB7R9TSqS2uOZ-9" value="store transactions" style="edgeLabel;html=1;align=center;verticalAlign=middle;resizable=0;points=[];fontFamily=Arial;fontSource=https%3A%2F%2Ffonts.googleapis.com%2Fcss%3Ffamily%3DArial;" parent="aUGEdeCKB7R9TSqS2uOZ-8" vertex="1" connectable="0">
          <mxGeometry x="-0.32" relative="1" as="geometry">
            <mxPoint x="-16" y="-10" as="offset" />
          </mxGeometry>
        </mxCell>
        <mxCell id="aUGEdeCKB7R9TSqS2uOZ-4" value="Updater Service" style="rounded=0;whiteSpace=wrap;html=1;fillColor=#d5e8d4;strokeColor=#82b366;fontFamily=Arial;fontSource=https%3A%2F%2Ffonts.googleapis.com%2Fcss%3Ffamily%3DArial;" parent="1" vertex="1">
          <mxGeometry x="320" y="260" width="120" height="60" as="geometry" />
        </mxCell>
        <mxCell id="aUGEdeCKB7R9TSqS2uOZ-6" value="get indexed &lt;br&gt;transactions" style="text;html=1;align=center;verticalAlign=middle;resizable=0;points=[];autosize=1;strokeColor=none;fillColor=none;fontFamily=Arial;fontSource=https%3A%2F%2Ffonts.googleapis.com%2Fcss%3Ffamily%3DArial;" parent="1" vertex="1">
          <mxGeometry x="369" y="200" width="90" height="40" as="geometry" />
        </mxCell>
        <mxCell id="aUGEdeCKB7R9TSqS2uOZ-7" value="PostgreSQL" style="shape=cylinder3;whiteSpace=wrap;html=1;boundedLbl=1;backgroundOutline=1;size=15;fillColor=#dae8fc;strokeColor=#6c8ebf;fontFamily=Arial;fontSource=https%3A%2F%2Ffonts.googleapis.com%2Fcss%3Ffamily%3DArial;" parent="1" vertex="1">
          <mxGeometry x="140" y="240" width="80" height="100" as="geometry" />
        </mxCell>
        <mxCell id="aUGEdeCKB7R9TSqS2uOZ-15" style="edgeStyle=orthogonalEdgeStyle;rounded=0;orthogonalLoop=1;jettySize=auto;html=1;exitX=0;exitY=0.5;exitDx=0;exitDy=0;entryX=1;entryY=0.5;entryDx=0;entryDy=0;strokeColor=default;fontFamily=Arial;fontSource=https%3A%2F%2Ffonts.googleapis.com%2Fcss%3Ffamily%3DArial;" parent="1" source="aUGEdeCKB7R9TSqS2uOZ-10" target="aUGEdeCKB7R9TSqS2uOZ-13" edge="1">
          <mxGeometry relative="1" as="geometry" />
        </mxCell>
        <mxCell id="aUGEdeCKB7R9TSqS2uOZ-10" value="Frontend Webapp" style="rounded=0;whiteSpace=wrap;html=1;fillColor=#e1d5e7;strokeColor=#9673a6;fontFamily=Arial;fontSource=https%3A%2F%2Ffonts.googleapis.com%2Fcss%3Ffamily%3DArial;" parent="1" vertex="1">
          <mxGeometry x="520" y="380" width="120" height="60" as="geometry" />
        </mxCell>
        <mxCell id="aUGEdeCKB7R9TSqS2uOZ-20" style="edgeStyle=orthogonalEdgeStyle;rounded=0;orthogonalLoop=1;jettySize=auto;html=1;entryX=1;entryY=0.5;entryDx=0;entryDy=0;strokeColor=default;fontFamily=Arial;fontSource=https%3A%2F%2Ffonts.googleapis.com%2Fcss%3Ffamily%3DArial;" parent="1" source="aUGEdeCKB7R9TSqS2uOZ-11" target="aUGEdeCKB7R9TSqS2uOZ-10" edge="1">
          <mxGeometry relative="1" as="geometry" />
        </mxCell>
        <mxCell id="aUGEdeCKB7R9TSqS2uOZ-11" value="" style="shape=umlActor;verticalLabelPosition=bottom;verticalAlign=top;html=1;outlineConnect=0;fontFamily=Arial;fontSource=https%3A%2F%2Ffonts.googleapis.com%2Fcss%3Ffamily%3DArial;" parent="1" vertex="1">
          <mxGeometry x="730" y="380" width="30" height="60" as="geometry" />
        </mxCell>
        <mxCell id="aUGEdeCKB7R9TSqS2uOZ-14" style="edgeStyle=orthogonalEdgeStyle;rounded=0;orthogonalLoop=1;jettySize=auto;html=1;strokeColor=default;entryX=0.5;entryY=1;entryDx=0;entryDy=0;entryPerimeter=0;fontFamily=Arial;fontSource=https%3A%2F%2Ffonts.googleapis.com%2Fcss%3Ffamily%3DArial;" parent="1" source="aUGEdeCKB7R9TSqS2uOZ-13" target="aUGEdeCKB7R9TSqS2uOZ-7" edge="1">
          <mxGeometry relative="1" as="geometry">
            <mxPoint x="180" y="410" as="targetPoint" />
          </mxGeometry>
        </mxCell>
        <mxCell id="aUGEdeCKB7R9TSqS2uOZ-13" value="Aggregator REST API" style="rounded=0;whiteSpace=wrap;html=1;fillColor=#fff2cc;strokeColor=#d6b656;fontFamily=Arial;fontSource=https%3A%2F%2Ffonts.googleapis.com%2Fcss%3Ffamily%3DArial;" parent="1" vertex="1">
          <mxGeometry x="320" y="380" width="120" height="60" as="geometry" />
        </mxCell>
        <mxCell id="aUGEdeCKB7R9TSqS2uOZ-21" style="edgeStyle=orthogonalEdgeStyle;rounded=0;orthogonalLoop=1;jettySize=auto;html=1;exitX=1;exitY=0.5;exitDx=0;exitDy=0;entryX=0;entryY=0.5;entryDx=0;entryDy=0;strokeColor=default;fontFamily=Arial;fontSource=https%3A%2F%2Ffonts.googleapis.com%2Fcss%3Ffamily%3DArial;" parent="1" source="aUGEdeCKB7R9TSqS2uOZ-22" target="aUGEdeCKB7R9TSqS2uOZ-23" edge="1">
          <mxGeometry relative="1" as="geometry" />
        </mxCell>
        <mxCell id="aUGEdeCKB7R9TSqS2uOZ-22" value="Algorand Full Node" style="rounded=0;whiteSpace=wrap;html=1;fillColor=#f8cecc;strokeColor=#b85450;fontFamily=Arial;fontSource=https%3A%2F%2Ffonts.googleapis.com%2Fcss%3Ffamily%3DArial;" parent="1" vertex="1">
          <mxGeometry x="120" y="100" width="120" height="60" as="geometry" />
        </mxCell>
        <mxCell id="aUGEdeCKB7R9TSqS2uOZ-23" value="Algorand Indexer V2" style="rounded=0;whiteSpace=wrap;html=1;fillColor=#f8cecc;strokeColor=#b85450;fontFamily=Arial;fontSource=https%3A%2F%2Ffonts.googleapis.com%2Fcss%3Ffamily%3DArial;" parent="1" vertex="1">
          <mxGeometry x="320" y="100" width="120" height="60" as="geometry" />
        </mxCell>
        <mxCell id="aUGEdeCKB7R9TSqS2uOZ-24" style="edgeStyle=orthogonalEdgeStyle;rounded=0;orthogonalLoop=1;jettySize=auto;html=1;exitX=0.5;exitY=0;exitDx=0;exitDy=0;entryX=0.5;entryY=1;entryDx=0;entryDy=0;fontFamily=Arial;fontSource=https%3A%2F%2Ffonts.googleapis.com%2Fcss%3Ffamily%3DArial;" parent="1" source="aUGEdeCKB7R9TSqS2uOZ-27" target="aUGEdeCKB7R9TSqS2uOZ-23" edge="1">
          <mxGeometry relative="1" as="geometry" />
        </mxCell>
        <mxCell id="aUGEdeCKB7R9TSqS2uOZ-25" style="edgeStyle=orthogonalEdgeStyle;rounded=0;orthogonalLoop=1;jettySize=auto;html=1;exitX=0;exitY=0.5;exitDx=0;exitDy=0;entryX=1;entryY=0.5;entryDx=0;entryDy=0;entryPerimeter=0;strokeColor=default;fontFamily=Arial;fontSource=https%3A%2F%2Ffonts.googleapis.com%2Fcss%3Ffamily%3DArial;" parent="1" source="aUGEdeCKB7R9TSqS2uOZ-27" target="aUGEdeCKB7R9TSqS2uOZ-29" edge="1">
          <mxGeometry relative="1" as="geometry" />
        </mxCell>
        <mxCell id="aUGEdeCKB7R9TSqS2uOZ-26" value="store transactions" style="edgeLabel;html=1;align=center;verticalAlign=middle;resizable=0;points=[];fontFamily=Arial;fontSource=https%3A%2F%2Ffonts.googleapis.com%2Fcss%3Ffamily%3DArial;" parent="aUGEdeCKB7R9TSqS2uOZ-25" vertex="1" connectable="0">
          <mxGeometry x="-0.32" relative="1" as="geometry">
            <mxPoint x="-16" y="-10" as="offset" />
          </mxGeometry>
        </mxCell>
        <mxCell id="rjI8zZIcE2u4cVr_lx01-5" style="edgeStyle=orthogonalEdgeStyle;rounded=0;orthogonalLoop=1;jettySize=auto;html=1;exitX=1;exitY=0.5;exitDx=0;exitDy=0;entryX=0;entryY=0.5;entryDx=0;entryDy=0;strokeColor=default;fontFamily=Arial;fontSource=https%3A%2F%2Ffonts.googleapis.com%2Fcss%3Ffamily%3DArial;" parent="1" source="aUGEdeCKB7R9TSqS2uOZ-27" target="rjI8zZIcE2u4cVr_lx01-4" edge="1">
          <mxGeometry relative="1" as="geometry" />
        </mxCell>
        <mxCell id="aUGEdeCKB7R9TSqS2uOZ-27" value="Updater Service" style="rounded=0;whiteSpace=wrap;html=1;fillColor=#d5e8d4;strokeColor=#82b366;fontFamily=Arial;fontSource=https%3A%2F%2Ffonts.googleapis.com%2Fcss%3Ffamily%3DArial;" parent="1" vertex="1">
          <mxGeometry x="320" y="260" width="120" height="60" as="geometry" />
        </mxCell>
        <mxCell id="aUGEdeCKB7R9TSqS2uOZ-29" value="PostgreSQL" style="shape=cylinder3;whiteSpace=wrap;html=1;boundedLbl=1;backgroundOutline=1;size=15;fillColor=#dae8fc;strokeColor=#6c8ebf;fontFamily=Arial;fontSource=https%3A%2F%2Ffonts.googleapis.com%2Fcss%3Ffamily%3DArial;" parent="1" vertex="1">
          <mxGeometry x="140" y="240" width="80" height="100" as="geometry" />
        </mxCell>
        <mxCell id="aUGEdeCKB7R9TSqS2uOZ-30" style="edgeStyle=orthogonalEdgeStyle;rounded=0;orthogonalLoop=1;jettySize=auto;html=1;exitX=0;exitY=0.5;exitDx=0;exitDy=0;entryX=1;entryY=0.5;entryDx=0;entryDy=0;strokeColor=default;fontFamily=Arial;fontSource=https%3A%2F%2Ffonts.googleapis.com%2Fcss%3Ffamily%3DArial;" parent="1" source="aUGEdeCKB7R9TSqS2uOZ-31" target="aUGEdeCKB7R9TSqS2uOZ-35" edge="1">
          <mxGeometry relative="1" as="geometry" />
        </mxCell>
        <mxCell id="aUGEdeCKB7R9TSqS2uOZ-31" value="Client Frontend" style="rounded=0;whiteSpace=wrap;html=1;fillColor=#e1d5e7;strokeColor=#9673a6;fontFamily=Arial;fontSource=https%3A%2F%2Ffonts.googleapis.com%2Fcss%3Ffamily%3DArial;" parent="1" vertex="1">
          <mxGeometry x="520" y="380" width="120" height="60" as="geometry" />
        </mxCell>
        <mxCell id="aUGEdeCKB7R9TSqS2uOZ-32" style="edgeStyle=orthogonalEdgeStyle;rounded=0;orthogonalLoop=1;jettySize=auto;html=1;entryX=1;entryY=0.5;entryDx=0;entryDy=0;strokeColor=default;fontFamily=Arial;fontSource=https%3A%2F%2Ffonts.googleapis.com%2Fcss%3Ffamily%3DArial;" parent="1" source="aUGEdeCKB7R9TSqS2uOZ-33" target="aUGEdeCKB7R9TSqS2uOZ-31" edge="1">
          <mxGeometry relative="1" as="geometry" />
        </mxCell>
        <mxCell id="aUGEdeCKB7R9TSqS2uOZ-33" value="" style="shape=umlActor;verticalLabelPosition=bottom;verticalAlign=top;html=1;outlineConnect=0;fontFamily=Arial;fontSource=https%3A%2F%2Ffonts.googleapis.com%2Fcss%3Ffamily%3DArial;" parent="1" vertex="1">
          <mxGeometry x="730" y="380" width="30" height="60" as="geometry" />
        </mxCell>
        <mxCell id="aUGEdeCKB7R9TSqS2uOZ-34" style="edgeStyle=orthogonalEdgeStyle;rounded=0;orthogonalLoop=1;jettySize=auto;html=1;strokeColor=default;entryX=0.5;entryY=1;entryDx=0;entryDy=0;entryPerimeter=0;fontFamily=Arial;fontSource=https%3A%2F%2Ffonts.googleapis.com%2Fcss%3Ffamily%3DArial;" parent="1" source="aUGEdeCKB7R9TSqS2uOZ-35" target="aUGEdeCKB7R9TSqS2uOZ-29" edge="1">
          <mxGeometry relative="1" as="geometry">
            <mxPoint x="180" y="410" as="targetPoint" />
          </mxGeometry>
        </mxCell>
        <mxCell id="aUGEdeCKB7R9TSqS2uOZ-35" value="Platform Backend" style="rounded=0;whiteSpace=wrap;html=1;fillColor=#fff2cc;strokeColor=#d6b656;fontFamily=Arial;fontSource=https%3A%2F%2Ffonts.googleapis.com%2Fcss%3Ffamily%3DArial;" parent="1" vertex="1">
          <mxGeometry x="320" y="380" width="120" height="60" as="geometry" />
        </mxCell>
        <mxCell id="rjI8zZIcE2u4cVr_lx01-4" value="&lt;span style=&quot;color: rgb(255, 255, 255);&quot;&gt;Algorand Foundation&lt;/span&gt;&lt;br style=&quot;color: rgb(255, 255, 255);&quot;&gt;&lt;span style=&quot;color: rgb(255, 255, 255);&quot;&gt;Governance API&lt;/span&gt;" style="rounded=0;whiteSpace=wrap;html=1;fillColor=#d80073;fontColor=#ffffff;strokeColor=#A50040;fontFamily=Arial;fontSource=https%3A%2F%2Ffonts.googleapis.com%2Fcss%3Ffamily%3DArial;" parent="1" vertex="1">
          <mxGeometry x="520" y="260" width="120" height="60" as="geometry" />
        </mxCell>
        <mxCell id="rjI8zZIcE2u4cVr_lx01-6" value="get current&lt;br&gt;governance&lt;br&gt;period" style="text;html=1;align=center;verticalAlign=middle;resizable=0;points=[];autosize=1;strokeColor=none;fillColor=none;fontFamily=Arial;fontSource=https%3A%2F%2Ffonts.googleapis.com%2Fcss%3Ffamily%3DArial;" parent="1" vertex="1">
          <mxGeometry x="435" y="240" width="90" height="60" as="geometry" />
        </mxCell>
      </root>
    </mxGraphModel>
  </diagram>
  <diagram id="HqhrPbeBV48h-syI6SuH" name="Page-2">
    <mxGraphModel dx="946" dy="646" grid="1" gridSize="10" guides="1" tooltips="1" connect="1" arrows="1" fold="1" page="1" pageScale="1" pageWidth="827" pageHeight="1169" math="0" shadow="0">
      <root>
        <mxCell id="0" />
        <mxCell id="1" parent="0" />
        <mxCell id="AdZDIQKVNNiNf7CndPts-5" style="edgeStyle=orthogonalEdgeStyle;rounded=0;orthogonalLoop=1;jettySize=auto;html=1;exitX=1;exitY=0.5;exitDx=0;exitDy=0;entryX=0;entryY=0.5;entryDx=0;entryDy=0;fontSize=18;" edge="1" parent="1" source="AdZDIQKVNNiNf7CndPts-1" target="AdZDIQKVNNiNf7CndPts-2">
          <mxGeometry relative="1" as="geometry" />
        </mxCell>
        <mxCell id="AdZDIQKVNNiNf7CndPts-1" value="Committing Period" style="rounded=1;whiteSpace=wrap;html=1;fillColor=#fff2cc;strokeColor=#d6b656;fontSize=18;" vertex="1" parent="1">
          <mxGeometry x="200" y="220" width="160" height="60" as="geometry" />
        </mxCell>
        <mxCell id="AdZDIQKVNNiNf7CndPts-6" style="edgeStyle=orthogonalEdgeStyle;rounded=0;orthogonalLoop=1;jettySize=auto;html=1;exitX=1;exitY=0.5;exitDx=0;exitDy=0;entryX=0;entryY=0.5;entryDx=0;entryDy=0;fontSize=18;" edge="1" parent="1" source="AdZDIQKVNNiNf7CndPts-2" target="AdZDIQKVNNiNf7CndPts-4">
          <mxGeometry relative="1" as="geometry" />
        </mxCell>
        <mxCell id="AdZDIQKVNNiNf7CndPts-2" value="Voting Period" style="rounded=1;whiteSpace=wrap;html=1;fillColor=#d5e8d4;strokeColor=#82b366;fontSize=18;" vertex="1" parent="1">
          <mxGeometry x="400" y="220" width="160" height="60" as="geometry" />
        </mxCell>
        <mxCell id="AdZDIQKVNNiNf7CndPts-7" style="edgeStyle=orthogonalEdgeStyle;rounded=0;orthogonalLoop=1;jettySize=auto;html=1;exitX=1;exitY=0.5;exitDx=0;exitDy=0;entryX=0;entryY=0.5;entryDx=0;entryDy=0;fontSize=18;" edge="1" parent="1" source="AdZDIQKVNNiNf7CndPts-3" target="AdZDIQKVNNiNf7CndPts-1">
          <mxGeometry relative="1" as="geometry" />
        </mxCell>
        <mxCell id="AdZDIQKVNNiNf7CndPts-3" value="Period Start" style="text;html=1;strokeColor=#b85450;fillColor=#f8cecc;align=center;verticalAlign=middle;whiteSpace=wrap;rounded=0;fontSize=18;" vertex="1" parent="1">
          <mxGeometry x="40" y="227.5" width="120" height="45" as="geometry" />
        </mxCell>
        <mxCell id="AdZDIQKVNNiNf7CndPts-4" value="Claimed Rewards" style="text;html=1;strokeColor=#b85450;fillColor=#f8cecc;align=center;verticalAlign=middle;whiteSpace=wrap;rounded=0;fontSize=18;" vertex="1" parent="1">
          <mxGeometry x="600" y="227.5" width="160" height="45" as="geometry" />
        </mxCell>
        <mxCell id="AdZDIQKVNNiNf7CndPts-8" value="Eligible Governors" style="text;html=1;align=center;verticalAlign=middle;resizable=0;points=[];autosize=1;strokeColor=none;fillColor=none;fontSize=18;" vertex="1" parent="1">
          <mxGeometry x="300" y="180" width="170" height="40" as="geometry" />
        </mxCell>
        <mxCell id="AdZDIQKVNNiNf7CndPts-9" value="" style="endArrow=classic;startArrow=classic;html=1;rounded=0;fontSize=18;" edge="1" parent="1">
          <mxGeometry width="50" height="50" relative="1" as="geometry">
            <mxPoint x="40" y="310" as="sourcePoint" />
            <mxPoint x="760" y="310" as="targetPoint" />
          </mxGeometry>
        </mxCell>
        <mxCell id="AdZDIQKVNNiNf7CndPts-11" value="One Governance Period per Quarter" style="text;html=1;align=center;verticalAlign=middle;resizable=0;points=[];autosize=1;strokeColor=none;fillColor=none;fontSize=18;" vertex="1" parent="1">
          <mxGeometry x="230" y="305" width="310" height="40" as="geometry" />
        </mxCell>
      </root>
    </mxGraphModel>
  </diagram>
</mxfile>
